# xmcd
#
# Track frame offsets: 
#        182
#        20647
#        41707
#        66217
#        108670
#        122260
#        145295
#        168730
#        193670
#        223485
#        255530
#        290147
#        316025
#
# Disc length: 4764 seconds
#
# Revision: 2
# Processed by: cddbd v1.5.2PL0 Copyright (c) Steve Scherf et al.
# Submitted via: ExactAudioCopy v0.99pb4
#
DISCID=cf129a0d
DTITLE=Buddy Guy - Buddy Guy And Friends [CD1]
DYEAR=1996
DGENRE=blues
TTITLE0=She Suits Me To A T
TTITLE1=Girl You're Nica And Clean
TTITLE2=Stone Crazy
TTITLE3=Tell Me What's Inside Of You
TTITLE4=Comin' On
TTITLE5=Love Is Like Quicksand
TTITLE6=Hubert Sumlin - All I Can Do
TTITLE7=Lurrie Bell - Smokin' Dynamite
TTITLE8=The Dollar Done Fell
TTITLE9=Blues At My Baby;s Home
TTITLE10=Jimmy Dawkins - Highwayman Blues
TTITLE11=Guitar Shorty - My Way Or The Highway
TTITLE12=I've Got A Right To Love My Woman - Blues In The Night
EXTD=
EXTT0=
EXTT1=
EXTT2=w. Phil Guy
EXTT3=
EXTT4=
EXTT5=w. Phil Guy
EXTT6=
EXTT7=
EXTT8=
EXTT9=
EXTT10=
EXTT11=
EXTT12=
PLAYORDER=
